<svg width="58" height="36" viewBox="0 0 58 36" fill="none" xmlns="http://www.w3.org/2000/svg">
<path d="M2.079 13V3.9H6.018C6.83267 3.9 7.53467 4.03433 8.124 4.303C8.71333 4.563 9.16833 4.94 9.489 5.434C9.80967 5.928 9.97 6.51733 9.97 7.202C9.97 7.878 9.80967 8.463 9.489 8.957C9.16833 9.451 8.71333 9.83233 8.124 10.101C7.53467 10.361 6.83267 10.491 6.018 10.491H3.249L4.185 9.542V13H2.079ZM4.185 9.776L3.249 8.775H5.901C6.551 8.775 7.03633 8.63633 7.357 8.359C7.67767 8.08167 7.838 7.696 7.838 7.202C7.838 6.69933 7.67767 6.30933 7.357 6.032C7.03633 5.75467 6.551 5.616 5.901 5.616H3.249L4.185 4.615V9.776ZM16.0205 13.156C15.3012 13.156 14.6338 13.039 14.0185 12.805C13.4118 12.571 12.8832 12.2417 12.4325 11.817C11.9905 11.3923 11.6438 10.894 11.3925 10.322C11.1498 9.75 11.0285 9.126 11.0285 8.45C11.0285 7.774 11.1498 7.15 11.3925 6.578C11.6438 6.006 11.9948 5.50767 12.4455 5.083C12.8962 4.65833 13.4248 4.329 14.0315 4.095C14.6382 3.861 15.2968 3.744 16.0075 3.744C16.7268 3.744 17.3855 3.861 17.9835 4.095C18.5902 4.329 19.1145 4.65833 19.5565 5.083C20.0072 5.50767 20.3582 6.006 20.6095 6.578C20.8608 7.14133 20.9865 7.76533 20.9865 8.45C20.9865 9.126 20.8608 9.75433 20.6095 10.335C20.3582 10.907 20.0072 11.4053 19.5565 11.83C19.1145 12.246 18.5902 12.571 17.9835 12.805C17.3855 13.039 16.7312 13.156 16.0205 13.156ZM16.0075 11.362C16.4148 11.362 16.7875 11.2927 17.1255 11.154C17.4722 11.0153 17.7755 10.816 18.0355 10.556C18.2955 10.296 18.4948 9.98833 18.6335 9.633C18.7808 9.27767 18.8545 8.88333 18.8545 8.45C18.8545 8.01667 18.7808 7.62233 18.6335 7.267C18.4948 6.91167 18.2955 6.604 18.0355 6.344C17.7842 6.084 17.4852 5.88467 17.1385 5.746C16.7918 5.60733 16.4148 5.538 16.0075 5.538C15.6002 5.538 15.2232 5.60733 14.8765 5.746C14.5385 5.88467 14.2395 6.084 13.9795 6.344C13.7195 6.604 13.5158 6.91167 13.3685 7.267C13.2298 7.62233 13.1605 8.01667 13.1605 8.45C13.1605 8.87467 13.2298 9.269 13.3685 9.633C13.5158 9.98833 13.7152 10.296 13.9665 10.556C14.2265 10.816 14.5298 11.0153 14.8765 11.154C15.2232 11.2927 15.6002 11.362 16.0075 11.362ZM22.5692 13V3.9H26.5082C27.3229 3.9 28.0249 4.03433 28.6142 4.303C29.2036 4.563 29.6586 4.94 29.9792 5.434C30.2999 5.928 30.4602 6.51733 30.4602 7.202C30.4602 7.878 30.2999 8.463 29.9792 8.957C29.6586 9.44233 29.2036 9.815 28.6142 10.075C28.0249 10.335 27.3229 10.465 26.5082 10.465H23.7392L24.6752 9.542V13H22.5692ZM28.3542 13L26.0792 9.698H28.3282L30.6292 13H28.3542ZM24.6752 9.776L23.7392 8.788H26.3912C27.0412 8.788 27.5266 8.64933 27.8472 8.372C28.1679 8.086 28.3282 7.696 28.3282 7.202C28.3282 6.69933 28.1679 6.30933 27.8472 6.032C27.5266 5.75467 27.0412 5.616 26.3912 5.616H23.7392L24.6752 4.615V9.776ZM33.8869 13V5.616H30.9749V3.9H38.9049V5.616H35.9929V13H33.8869ZM38.385 13L42.441 3.9H44.521L48.59 13H46.38L43.052 4.966H43.884L40.543 13H38.385ZM40.413 11.05L40.972 9.451H45.652L46.224 11.05H40.413ZM49.5341 13V3.9H51.6401V11.284H56.2031V13H49.5341Z" fill="#E7E7E7"/>
<path d="M2 15H56" stroke="#E7E7E7"/>
<path d="M2.075 35V17.5H9.65C11.2167 17.5 12.5667 17.7583 13.7 18.275C14.8333 18.775 15.7083 19.5 16.325 20.45C16.9417 21.4 17.25 22.5333 17.25 23.85C17.25 25.15 16.9417 26.275 16.325 27.225C15.7083 28.175 14.8333 28.9083 13.7 29.425C12.5667 29.925 11.2167 30.175 9.65 30.175H4.325L6.125 28.35V35H2.075ZM6.125 28.8L4.325 26.875H9.425C10.675 26.875 11.6083 26.6083 12.225 26.075C12.8417 25.5417 13.15 24.8 13.15 23.85C13.15 22.8833 12.8417 22.1333 12.225 21.6C11.6083 21.0667 10.675 20.8 9.425 20.8H4.325L6.125 18.875V28.8ZM20.1414 35V17.5H23.4914L30.9414 29.85H29.1664L36.4914 17.5H39.8164L39.8664 35H36.0664L36.0414 23.325H36.7414L30.8914 33.15H29.0664L23.0914 23.325H23.9414V35H20.1414ZM44.0184 35V17.5H48.0684V31.7H56.8434V35H44.0184Z" fill="#E7E7E7"/>
</svg>
