<svg width="196" height="196" viewBox="0 0 196 196" fill="none" xmlns="http://www.w3.org/2000/svg">
<path d="M98 0L102.939 15.2016H118.923L105.992 24.5967L110.931 39.7984L98 30.4033L85.0687 39.7984L90.008 24.5967L77.0768 15.2016H93.0607L98 0Z" fill="#C6C6C6"/>
<path d="M174 76L178.939 91.2016H194.923L181.992 100.597L186.931 115.798L174 106.403L161.069 115.798L166.008 100.597L153.077 91.2016H169.061L174 76Z" fill="#C6C6C6"/>
<path d="M98 152L102.939 167.202H118.923L105.992 176.597L110.931 191.798L98 182.403L85.0687 191.798L90.008 176.597L77.0768 167.202H93.0607L98 152Z" fill="#C6C6C6"/>
<path d="M22 76L26.9393 91.2016H42.9232L29.992 100.597L34.9313 115.798L22 106.403L9.06872 115.798L14.008 100.597L1.07676 91.2016H17.0607L22 76Z" fill="#C6C6C6"/>
</svg>
